# xmcd
#
# Track frame offsets:
#	150
#	20757
#	41236
#	56992
#	74371
#	96599
#	107821
#	129767
#
# Disc length: 1938 seconds
#
# Revision: 1
# Processed by: cddbd v1.5.1PL2 Copyright (c) Steve Scherf et al.
# Submitted via: audiograbber 1.83.01
#
DISCID=77079008
DTITLE=Mr. Hurricane Band - Mr. Hurricane Band
DYEAR=2002
DGENRE=Blues
TTITLE0=The Hook
TTITLE1=I'm worried
TTITLE2=John Henry
TTITLE3=I walk these streets cold and lonely
TTITLE4=Walkin' blues
TTITLE5=Special 20
TTITLE6=Georgia on my mind
TTITLE7=Mess around
EXTD=
EXTT0=
EXTT1=
EXTT2=
EXTT3=
EXTT4=
EXTT5=
EXTT6=
EXTT7=
PLAYORDER=
